<svg xmlns="http://www.w3.org/2000/svg" width="462.42" height="65.16" viewBox="0 0 462.42 65.16"><path d="M21.9-35.28V0H10.14V-35.28H.48v-9.96H31.56v9.96ZM43.8-15.54a6.975,6.975,0,0,0,.57,2.85,7.635,7.635,0,0,0,1.5,2.25,6.6,6.6,0,0,0,2.22,1.5,7,7,0,0,0,2.73.54,7,7,0,0,0,2.73-.54,6.6,6.6,0,0,0,2.22-1.5,7.635,7.635,0,0,0,1.5-2.25,6.825,6.825,0,0,0,.57-2.79,6.68,6.68,0,0,0-.57-2.73,7.635,7.635,0,0,0-1.5-2.25,6.6,6.6,0,0,0-2.22-1.5,7,7,0,0,0-2.73-.54,7,7,0,0,0-2.73.54,6.6,6.6,0,0,0-2.22,1.5,7.756,7.756,0,0,0-1.5,2.22A6.474,6.474,0,0,0,43.8-15.54Zm-11.46-.12a14.978,14.978,0,0,1,1.38-6.39,15.7,15.7,0,0,1,3.84-5.16,18.258,18.258,0,0,1,5.85-3.45,21.112,21.112,0,0,1,7.41-1.26,21.393,21.393,0,0,1,7.35,1.23,18.194,18.194,0,0,1,5.88,3.42,15.342,15.342,0,0,1,3.87,5.22,15.952,15.952,0,0,1,1.38,6.69,15.662,15.662,0,0,1-1.41,6.69,15.88,15.88,0,0,1-3.87,5.22A17.332,17.332,0,0,1,58.11-.06a22.59,22.59,0,0,1-7.47,1.2,21.617,21.617,0,0,1-7.32-1.2,16.9,16.9,0,0,1-5.79-3.42,15.869,15.869,0,0,1-3.81-5.31A16.662,16.662,0,0,1,32.34-15.66ZM86.4-49.8v30.12l11.4-11.1h14.88L97.26-16.56,113.58,0H98.34L86.4-12.54V0H75.54V-49.8ZM128.58-4.2,113.7-30.78h12.6L134.52-15l7.98-15.78h12.48L130.26,15.36H118.08Zm38.76-11.34a6.975,6.975,0,0,0,.57,2.85,7.635,7.635,0,0,0,1.5,2.25,6.6,6.6,0,0,0,2.22,1.5,7,7,0,0,0,2.73.54,7,7,0,0,0,2.73-.54,6.6,6.6,0,0,0,2.22-1.5,7.635,7.635,0,0,0,1.5-2.25,6.825,6.825,0,0,0,.57-2.79,6.68,6.68,0,0,0-.57-2.73,7.635,7.635,0,0,0-1.5-2.25,6.6,6.6,0,0,0-2.22-1.5,7,7,0,0,0-2.73-.54,7,7,0,0,0-2.73.54,6.6,6.6,0,0,0-2.22,1.5,7.755,7.755,0,0,0-1.5,2.22A6.474,6.474,0,0,0,167.34-15.54Zm-11.46-.12a14.978,14.978,0,0,1,1.38-6.39,15.7,15.7,0,0,1,3.84-5.16,18.258,18.258,0,0,1,5.85-3.45,21.112,21.112,0,0,1,7.41-1.26,21.393,21.393,0,0,1,7.35,1.23,18.193,18.193,0,0,1,5.88,3.42,15.342,15.342,0,0,1,3.87,5.22,15.952,15.952,0,0,1,1.38,6.69,15.662,15.662,0,0,1-1.41,6.69,15.879,15.879,0,0,1-3.87,5.22,17.332,17.332,0,0,1-5.91,3.39,22.59,22.59,0,0,1-7.47,1.2,21.617,21.617,0,0,1-7.32-1.2,16.9,16.9,0,0,1-5.79-3.42,15.869,15.869,0,0,1-3.81-5.31A16.662,16.662,0,0,1,155.88-15.66ZM198.06,0l7.68-45.24h11.64l9.06,24.12,9-24.12h11.64L254.76,0h-11.7l-3.9-26.04L228.48,0H223.8L213.66-26.04,209.76,0Zm73.98-30.78v17.34q0,5.7,5.52,5.7t5.52-5.7V-30.78h10.86v19.44q0,6.24-4.11,9.36T277.56,1.14q-8.16,0-12.27-3.12t-4.11-9.36V-30.78Zm49.68,7.92a12.69,12.69,0,0,0-5.88-1.56,4.418,4.418,0,0,0-2.43.6,1.844,1.844,0,0,0-.93,1.62,2.125,2.125,0,0,0,.15.87,1.549,1.549,0,0,0,.66.63,5.724,5.724,0,0,0,1.5.54q.99.24,2.61.6a12.468,12.468,0,0,1,6.72,3.21,8.179,8.179,0,0,1,2.22,5.91,10.717,10.717,0,0,1-1.08,4.86,10.336,10.336,0,0,1-3,3.63A14.259,14.259,0,0,1,317.64.33a20.608,20.608,0,0,1-5.94.81A24.139,24.139,0,0,1,299.4-2.4l3.96-7.68A15.472,15.472,0,0,0,312-6.96a4.251,4.251,0,0,0,2.46-.66,1.973,1.973,0,0,0,.96-1.68,2.788,2.788,0,0,0-.15-.99,1.614,1.614,0,0,0-.63-.72,5.021,5.021,0,0,0-1.41-.6q-.93-.27-2.43-.57-5.04-1.02-7.05-3.03a7.5,7.5,0,0,1-2.01-5.55,10.924,10.924,0,0,1,.96-4.65,9.628,9.628,0,0,1,2.76-3.51,12.938,12.938,0,0,1,4.35-2.22,19.336,19.336,0,0,1,5.67-.78,25.727,25.727,0,0,1,9.9,1.98Zm32.64,3a6.534,6.534,0,0,0-2.22-3.66,6.219,6.219,0,0,0-4.08-1.38,6.221,6.221,0,0,0-4.11,1.32,5.975,5.975,0,0,0-2.01,3.72Zm-12.72,6.3q0,7.02,6.6,7.02a5.9,5.9,0,0,0,5.34-2.88h10.5Q360.9,1.14,348.18,1.14a20.888,20.888,0,0,1-7.14-1.17,15.938,15.938,0,0,1-5.55-3.33,14.842,14.842,0,0,1-3.57-5.16,17.2,17.2,0,0,1-1.26-6.72,19.011,19.011,0,0,1,1.2-6.93,14.575,14.575,0,0,1,3.42-5.25,15.153,15.153,0,0,1,5.37-3.33,20.312,20.312,0,0,1,7.11-1.17,19.878,19.878,0,0,1,7.02,1.17,14.209,14.209,0,0,1,5.28,3.39,14.731,14.731,0,0,1,3.3,5.43,21.509,21.509,0,0,1,1.14,7.23v1.14Zm39.9-17.22v17.34q0,5.7,5.52,5.7t5.52-5.7V-30.78h10.86v19.44q0,6.24-4.11,9.36T387.06,1.14q-8.16,0-12.27-3.12t-4.11-9.36V-30.78Zm29.28,0h10.86V-27a14.045,14.045,0,0,1,9.96-4.26,11.583,11.583,0,0,1,10.44,5.76,11.644,11.644,0,0,1,10.44-5.82,13.005,13.005,0,0,1,4.08.63,8.382,8.382,0,0,1,3.3,1.98,9.474,9.474,0,0,1,2.19,3.51,14.908,14.908,0,0,1,.81,5.22V0H452.04V-15.18a18.382,18.382,0,0,0-.33-3.84,6.066,6.066,0,0,0-.96-2.34,3.179,3.179,0,0,0-1.47-1.14,5.313,5.313,0,0,0-1.8-.3q-5.22,0-5.22,7.62V0H431.4V-15.18a20.663,20.663,0,0,0-.3-3.87,7.131,7.131,0,0,0-.87-2.43,2.91,2.91,0,0,0-1.47-1.23,6.091,6.091,0,0,0-2.1-.33,6.033,6.033,0,0,0-1.92.3,3.406,3.406,0,0,0-1.59,1.17,6.378,6.378,0,0,0-1.08,2.4,16.645,16.645,0,0,0-.39,3.99V0H410.82Z" transform="translate(-0.48 49.8)"/></svg>