<svg xmlns="http://www.w3.org/2000/svg" width="857.432" height="58.201" viewBox="0 0 857.432 58.201">
  <path id="パス_1" data-name="パス 1" d="M48.6-55.617l.615,13.043H47.66A15.751,15.751,0,0,0,46.43-47.5,8.233,8.233,0,0,0,43.046-51a11.8,11.8,0,0,0-5.558-1.128H29.654V-9.639q0,5.127,1.107,6.4a6.158,6.158,0,0,0,4.8,1.723h1.928V0H13.9V-1.518h1.969q3.527,0,5-2.133.9-1.312.9-5.988V-52.131H15.094a18.642,18.642,0,0,0-5.537.574,7.6,7.6,0,0,0-3.65,2.994,12.122,12.122,0,0,0-1.8,5.988H2.543L3.2-55.617Zm31.91-1.271a25.224,25.224,0,0,1,18.765,8.224q7.937,8.224,7.937,20.528,0,12.674-8,21.041A25.8,25.8,0,0,1,79.857,1.271a25.652,25.652,0,0,1-19.3-8.162q-7.813-8.162-7.813-21.123,0-13.248,9.023-21.615A26.619,26.619,0,0,1,80.514-56.889Zm-.779,2.994a14.675,14.675,0,0,0-11.977,5.537q-5.619,6.891-5.619,20.18,0,13.617,5.824,20.959A14.391,14.391,0,0,0,79.775-1.641a16.141,16.141,0,0,0,12.94-6.111q5.106-6.111,5.106-19.277,0-14.273-5.619-21.287Q87.691-53.895,79.734-53.895Zm55.822,23.051,20.508,20.385a37.444,37.444,0,0,0,8.613,6.87,18.381,18.381,0,0,0,7.137,2.071V0H145.359V-1.518a5.714,5.714,0,0,0,3.425-.8A2.257,2.257,0,0,0,149.83-4.1a3.89,3.89,0,0,0-.39-1.764,15.628,15.628,0,0,0-2.563-2.912l-19.2-18.99V-9.844a18.416,18.416,0,0,0,.533,5.578A3.672,3.672,0,0,0,129.938-2.5a7.545,7.545,0,0,0,3.732.984h1.887V0H111.85V-1.518h1.969q3.445,0,5-2.01.984-1.312.984-6.316v-35.93a18.871,18.871,0,0,0-.533-5.619,3.747,3.747,0,0,0-1.682-1.723,7.774,7.774,0,0,0-3.773-.984H111.85v-1.518h23.707V-54.1H133.67a7.96,7.96,0,0,0-3.732.943,3.558,3.558,0,0,0-1.764,1.969,18.745,18.745,0,0,0-.492,5.414v17.021q.82-.779,5.619-5.209,12.182-11.156,14.725-14.889a5.374,5.374,0,0,0,1.107-2.871,2.119,2.119,0,0,0-.861-1.661,4.588,4.588,0,0,0-2.912-.718h-1.271v-1.518h20.426V-54.1a12.154,12.154,0,0,0-3.281.492,16.847,16.847,0,0,0-3.609,1.743,35.343,35.343,0,0,0-5.25,4.163q-.9.82-8.326,8.408Zm75.592-24.773h19.4V-54.1h-1.066a8.368,8.368,0,0,0-3.117.943,12.174,12.174,0,0,0-3.732,2.707,36.893,36.893,0,0,0-4.143,5.742L205.078-23.584V-9.639q0,5.127,1.148,6.4,1.559,1.723,4.922,1.723h1.8V0H189.328V-1.518H191.3q3.527,0,5-2.133.9-1.312.9-5.988V-22.8L181.945-46.1a49.144,49.144,0,0,0-3.671-5.127,14.409,14.409,0,0,0-4-2.461,5.468,5.468,0,0,0-2.379-.41v-1.518h23.789V-54.1h-1.23a7.169,7.169,0,0,0-3.548.9,2.916,2.916,0,0,0-1.62,2.707q0,1.477,2.5,5.332L203.4-27.234l10.91-17.145q2.461-3.855,2.461-5.742a3.643,3.643,0,0,0-.595-2.051,3.979,3.979,0,0,0-1.7-1.415,8.26,8.26,0,0,0-3.322-.513ZM262.5-56.889a25.224,25.224,0,0,1,18.765,8.224q7.937,8.224,7.937,20.528,0,12.674-8,21.041a25.8,25.8,0,0,1-19.359,8.367,25.652,25.652,0,0,1-19.3-8.162q-7.813-8.162-7.813-21.123,0-13.248,9.023-21.615A26.619,26.619,0,0,1,262.5-56.889Zm-.779,2.994a14.675,14.675,0,0,0-11.977,5.537q-5.619,6.891-5.619,20.18,0,13.617,5.824,20.959a14.391,14.391,0,0,0,11.813,5.578A16.141,16.141,0,0,0,274.7-7.752q5.106-6.111,5.106-19.277,0-14.273-5.619-21.287Q269.678-53.895,261.721-53.895ZM370.207,0H355.359L336.533-26q-2.092.082-3.4.082-.533,0-1.148-.021T330.709-26v16.16q0,5.25,1.148,6.521a5.843,5.843,0,0,0,4.676,1.8h2.174V0h-23.83V-1.518h2.092q3.527,0,5.045-2.3.861-1.271.861-6.029v-35.93q0-5.25-1.148-6.521a6.026,6.026,0,0,0-4.758-1.8h-2.092v-1.518h20.262q8.859,0,13.063,1.292a14.945,14.945,0,0,1,7.137,4.758,12.379,12.379,0,0,1,2.933,8.265,12.986,12.986,0,0,1-3.343,8.9q-3.343,3.773-10.356,5.332l11.484,15.955q3.938,5.5,6.768,7.3a17.047,17.047,0,0,0,7.383,2.3Zm-39.5-28.588q.779,0,1.354.021t.943.021q7.957,0,12-3.445a11.027,11.027,0,0,0,4.04-8.777,11.458,11.458,0,0,0-3.261-8.47,11.671,11.671,0,0,0-8.634-3.261,36.2,36.2,0,0,0-6.439.779Zm56.314-23.994V-30.6h12.223q4.758,0,6.357-1.436,2.133-1.887,2.379-6.645H409.5v19.359h-1.518a21.168,21.168,0,0,0-1.148-5.209,5.134,5.134,0,0,0-2.42-2.256,12.355,12.355,0,0,0-5.168-.82H387.023V-9.27a17.03,17.03,0,0,0,.328,4.491A2.58,2.58,0,0,0,388.5-3.507a6.974,6.974,0,0,0,3.117.472h9.434a25.558,25.558,0,0,0,6.85-.656A10.216,10.216,0,0,0,412-6.275a31.561,31.561,0,0,0,5.209-7.67h1.641L414.053,0H371.191V-1.518h1.969a7.8,7.8,0,0,0,3.732-.943,3.45,3.45,0,0,0,1.784-1.969,19.3,19.3,0,0,0,.472-5.373V-45.937q0-5.291-1.066-6.521Q376.605-54.1,373.16-54.1h-1.969v-1.518h42.861l.615,12.182h-1.6a19.218,19.218,0,0,0-1.907-6.029,6.549,6.549,0,0,0-3.1-2.5,18.578,18.578,0,0,0-5.783-.615Zm72.27-4.307v19.236h-1.518a23.963,23.963,0,0,0-2.646-8.818A13.763,13.763,0,0,0,449.7-51.68a15.034,15.034,0,0,0-7.3-1.928A9.93,9.93,0,0,0,435.34-51a7.925,7.925,0,0,0-2.789,5.927,7.021,7.021,0,0,0,1.764,4.635q2.543,3.076,12.1,8.2a83.612,83.612,0,0,1,10.644,6.419,15.655,15.655,0,0,1,4.389,5.271,13.885,13.885,0,0,1,1.538,6.357,14.4,14.4,0,0,1-4.9,10.89q-4.9,4.573-12.612,4.573A26.7,26.7,0,0,1,440.918.9a46.477,46.477,0,0,1-5.271-1.5,23.632,23.632,0,0,0-5.065-1.292,2.148,2.148,0,0,0-1.62.615,4.9,4.9,0,0,0-.882,2.543h-1.518V-17.8h1.518a26.957,26.957,0,0,0,2.871,8.962A13.791,13.791,0,0,0,436.468-3.9a17.1,17.1,0,0,0,8.142,1.969,11.579,11.579,0,0,0,8.1-2.707,8.384,8.384,0,0,0,2.974-6.4,8.675,8.675,0,0,0-1.128-4.143,12.345,12.345,0,0,0-3.507-3.9,100.565,100.565,0,0,0-8.736-5.229,84.748,84.748,0,0,1-10.151-6.378,17.2,17.2,0,0,1-4.573-5.25,13.024,13.024,0,0,1-1.559-6.316,13.692,13.692,0,0,1,4.594-10.315,16.367,16.367,0,0,1,11.689-4.327,23.451,23.451,0,0,1,9.393,2.174,9.663,9.663,0,0,0,3.24,1.025,2.443,2.443,0,0,0,1.743-.636,5.075,5.075,0,0,0,1.087-2.563ZM516.1-55.617l.615,13.043h-1.559a15.751,15.751,0,0,0-1.23-4.922A8.233,8.233,0,0,0,510.542-51a11.8,11.8,0,0,0-5.558-1.128H497.15V-9.639q0,5.127,1.107,6.4a6.158,6.158,0,0,0,4.8,1.723h1.928V0H481.4V-1.518h1.969q3.527,0,5-2.133.9-1.312.9-5.988V-52.131H482.59a18.642,18.642,0,0,0-5.537.574,7.6,7.6,0,0,0-3.65,2.994,12.122,12.122,0,0,0-1.8,5.988h-1.559l.656-13.043Zm34.412,37H528.979l-3.773,8.777A13.9,13.9,0,0,0,523.811-5a2.811,2.811,0,0,0,1.21,2.235q1.21.964,5.229,1.251V0H512.736V-1.518q3.486-.615,4.512-1.6,2.092-1.969,4.635-8l19.564-45.773h1.436l19.359,46.266q2.338,5.578,4.245,7.239A8.654,8.654,0,0,0,571.8-1.518V0H549.855V-1.518q3.322-.164,4.491-1.107a2.856,2.856,0,0,0,1.169-2.3,17.006,17.006,0,0,0-1.641-5.7Zm-1.148-3.035L539.93-44.133l-9.68,22.477ZM612.814-54.1v-1.518H632.5V-54.1H630.41a5.649,5.649,0,0,0-5.045,2.748q-.861,1.271-.861,5.906v22.559q0,8.367-1.661,12.981a16.3,16.3,0,0,1-6.521,7.916q-4.86,3.3-13.228,3.3-9.105,0-13.822-3.158a17.1,17.1,0,0,1-6.686-8.49q-1.312-3.65-1.312-13.7V-45.773q0-5.127-1.415-6.727t-4.573-1.6h-2.092v-1.518h24.035V-54.1H595.1q-3.445,0-4.922,2.174-1.025,1.477-1.025,6.152v24.24a53.421,53.421,0,0,0,.595,7.424A15.8,15.8,0,0,0,591.9-7.588a11.714,11.714,0,0,0,4.491,3.855,15.527,15.527,0,0,0,7.2,1.518,19.849,19.849,0,0,0,9.762-2.379,12.747,12.747,0,0,0,5.886-6.091q1.579-3.712,1.579-12.571V-45.773q0-5.209-1.148-6.521a6.026,6.026,0,0,0-4.758-1.8ZM690.17,0H675.322L656.5-26q-2.092.082-3.4.082-.533,0-1.148-.021T650.672-26v16.16q0,5.25,1.148,6.521a5.843,5.843,0,0,0,4.676,1.8h2.174V0H634.84V-1.518h2.092q3.527,0,5.045-2.3.861-1.271.861-6.029v-35.93q0-5.25-1.148-6.521a6.026,6.026,0,0,0-4.758-1.8H634.84v-1.518H655.1q8.859,0,13.063,1.292a14.945,14.945,0,0,1,7.137,4.758,12.379,12.379,0,0,1,2.933,8.265,12.986,12.986,0,0,1-3.343,8.9q-3.343,3.773-10.356,5.332L676.02-11.115q3.938,5.5,6.768,7.3a17.047,17.047,0,0,0,7.383,2.3Zm-39.5-28.588q.779,0,1.354.021t.943.021q7.957,0,12-3.445a11.027,11.027,0,0,0,4.04-8.777,11.458,11.458,0,0,0-3.261-8.47,11.671,11.671,0,0,0-8.634-3.261,36.2,36.2,0,0,0-6.439.779Zm77.191,9.967H706.33l-3.773,8.777A13.9,13.9,0,0,0,701.162-5a2.811,2.811,0,0,0,1.21,2.235q1.21.964,5.229,1.251V0H690.088V-1.518q3.486-.615,4.512-1.6,2.092-1.969,4.635-8L718.8-56.889h1.436l19.359,46.266q2.338,5.578,4.245,7.239a8.654,8.654,0,0,0,5.312,1.866V0H727.207V-1.518q3.322-.164,4.491-1.107a2.856,2.856,0,0,0,1.169-2.3,17.006,17.006,0,0,0-1.641-5.7Zm-1.148-3.035-9.434-22.477L707.6-21.656Zm22.271-33.961H764.08l34,41.713V-45.979q0-5.127-1.148-6.4-1.518-1.723-4.8-1.723h-1.928v-1.518h19.359V-54.1H807.6q-3.527,0-5,2.133-.9,1.313-.9,5.988V.9h-1.477L763.547-43.887V-9.639q0,5.127,1.107,6.4a6.158,6.158,0,0,0,4.8,1.723h1.969V0H752.063V-1.518h1.928q3.568,0,5.045-2.133.9-1.312.9-5.988V-48.316a25.347,25.347,0,0,0-3.671-3.732A13.479,13.479,0,0,0,752.6-53.73a13.074,13.074,0,0,0-3.609-.369Zm110.373,0,.615,13.043h-1.559a15.751,15.751,0,0,0-1.23-4.922A8.233,8.233,0,0,0,853.8-51a11.8,11.8,0,0,0-5.558-1.128H840.41V-9.639q0,5.127,1.107,6.4a6.158,6.158,0,0,0,4.8,1.723h1.928V0H824.66V-1.518h1.969q3.527,0,5-2.133.9-1.312.9-5.988V-52.131H825.85a18.642,18.642,0,0,0-5.537.574,7.6,7.6,0,0,0-3.65,2.994,12.122,12.122,0,0,0-1.8,5.988H813.3l.656-13.043Z" transform="translate(-2.543 56.889)"/>
</svg>
